HIERARCHY
ROOT RootJoint
{
    OFFSET   0.000000   0.000000   0.000000
    CHANNELS 6 Xposition Yposition Zposition Xrotation Yrotation Zrotation
    JOINT pelvis_lowerback
    {
        OFFSET   0.000000   0.093605   0.000000
        CHANNELS 3 Xrotation Yrotation Zrotation
        JOINT lowerback_torso
        {
            OFFSET   0.000000   0.100000   0.000000
            CHANNELS 3 Xrotation Yrotation Zrotation
            JOINT torso_head
            {
                OFFSET   0.000000   0.282350   0.000000
                CHANNELS 3 Xrotation Yrotation Zrotation
                End Site
                {
                    OFFSET   0.000000   0.192650   0.000000
                }
            }
            JOINT rTorso_Clavicle
            {
                OFFSET  -0.001000   0.157500   0.000000
                CHANNELS 3 Xrotation Yrotation Zrotation
                JOINT rShoulder
                {
                    OFFSET  -0.117647   0.000000   0.000000
                    CHANNELS 3 Xrotation Yrotation Zrotation
                    JOINT rElbow
                    {
                        OFFSET  -0.245000   0.000000   0.000000
                        CHANNELS 3 Xrotation Yrotation Zrotation
                        JOINT rWrist
                        {
                            OFFSET  -0.240000   0.000000   0.000000
                            CHANNELS 3 Xrotation Yrotation Zrotation
                            End Site
                            {
                                OFFSET  -0.116353  -0.002500   0.000000
                            }
                        }
                    }
                }
            }
            JOINT lTorso_Clavicle
            {
                OFFSET   0.001000   0.157500   0.000000
                CHANNELS 3 Xrotation Yrotation Zrotation
                JOINT lShoulder
                {
                    OFFSET   0.117647   0.000000   0.000000
                    CHANNELS 3 Xrotation Yrotation Zrotation
                    JOINT lElbow
                    {
                        OFFSET   0.245000   0.000000   0.000000
                        CHANNELS 3 Xrotation Yrotation Zrotation
                        JOINT lWrist
                        {
                            OFFSET   0.240000   0.000000   0.000000
                            CHANNELS 3 Xrotation Yrotation Zrotation
                            End Site
                            {
                                OFFSET   0.116353  -0.002500   0.000000
                            }
                        }
                    }
                }
            }
        }
    }
    JOINT rHip
    {
        OFFSET  -0.100000  -0.051395   0.000000
        CHANNELS 3 Xrotation Yrotation Zrotation
        JOINT rKnee
        {
            OFFSET   0.000000  -0.410000   0.000000
            CHANNELS 3 Xrotation Yrotation Zrotation
            JOINT rAnkle
            {
                OFFSET   0.000000  -0.390000   0.000000
                CHANNELS 3 Xrotation Yrotation Zrotation
                JOINT rToeJoint
                {
                    OFFSET   0.000000  -0.050000   0.130000
                    CHANNELS 3 Xrotation Yrotation Zrotation
                    End Site
                    {
                        OFFSET  -0.010000   0.002000   0.060000
                    }
                }
            }
        }
    }
    JOINT lHip
    {
        OFFSET   0.100000  -0.051395   0.000000
        CHANNELS 3 Xrotation Yrotation Zrotation
        JOINT lKnee
        {
            OFFSET   0.000000  -0.410000   0.000000
            CHANNELS 3 Xrotation Yrotation Zrotation
            JOINT lAnkle
            {
                OFFSET   0.000000  -0.390000   0.000000
                CHANNELS 3 Xrotation Yrotation Zrotation
                JOINT lToeJoint
                {
                    OFFSET   0.000000  -0.050000   0.130000
                    CHANNELS 3 Xrotation Yrotation Zrotation
                    End Site
                    {
                        OFFSET   0.010000   0.002000   0.060000
                    }
                }
            }
        }
    }
}
MOTION
Frames: 8
Frame Time:   0.008333
 -2.337970   0.943491   3.842635  -4.330809 -29.985049  -3.328522  12.963775  -2.641739  -2.544601   8.350631  -2.440399  -3.592216   3.276968  -2.488439  -0.157326   7.371043  -6.868046  -5.628429  21.043062   0.905020  47.609194  -0.007517  42.352986   0.014394   0.985047   4.838110   4.312600   5.360138   4.916123   0.809756   6.856667   2.404235 -44.432089  -0.004087 -42.881536   0.006669  -0.951869  -5.860214   1.961877 -18.923530  -5.469594   2.699217  31.481048   0.000455   0.001173  26.136333  -4.858676   4.606241 -45.025796   0.006708  -0.001512 -11.234648   0.400624   1.333609  57.609876  -0.001162  -0.001463  -0.077496  -2.205963  -6.222255  -9.577885   0.009588  -0.016093
 -2.334316   0.943727   3.837183  -4.366405 -30.468353  -3.253647  13.250645  -2.707611  -2.744591   8.266887  -2.611373  -3.598446   3.224446  -2.237462  -0.173512   7.211637  -6.851661  -5.556524  20.800804   0.850692  47.293366  -0.007874  42.914200   0.014635   0.983562   4.586464   4.293544   5.149226   4.519009   0.668322   6.333775   2.083596 -44.045648  -0.002821 -43.304503   0.008414  -0.984845  -5.718601   2.055583 -19.358347  -5.278065   2.580232  31.353871   0.000381   0.001287  26.251535  -4.449942   5.097861 -42.952517  -0.005746  -0.007750 -10.571578   0.589678   0.812775  56.002882  -0.001137   0.007279  -0.879842  -1.989252  -5.889695  -8.866270   0.005665  -0.016892
 -2.330522   0.943481   3.831430  -4.400477 -30.874791  -3.217279  13.598357  -2.795913  -2.896984   8.205902  -2.783367  -3.595494   3.175131  -2.002223  -0.196903   7.027743  -6.782632  -5.485311  20.535304   0.834319  46.995361  -0.007900  43.458313   0.014095   0.974674   4.407846   4.251005   4.917197   4.091449   0.557393   5.811647   1.747214 -43.672127  -0.001655 -43.717096   0.009922  -1.010207  -5.640985   2.153269 -19.871175  -5.137881   2.490063  31.346827   0.000307   0.001046  26.377008  -4.067310   5.563341 -41.113892  -0.014280  -0.010592 -10.001012   0.724586   0.372874  54.163316  -0.001587   0.014339  -1.652435  -1.786468  -5.574445  -8.256089   0.002894  -0.016673
 -2.326656   0.942734   3.825531  -4.462003 -31.223483  -3.223613  13.983619  -2.888460  -3.021422   8.181146  -2.948685  -3.579657   3.137422  -1.782818  -0.220055   6.836845  -6.684582  -5.417057  20.265606   0.839752  46.713443  -0.007686  43.976845   0.013067   0.962259   4.292514   4.202924   4.678853   3.658061   0.465149   5.304203   1.409382 -43.317679  -0.000623 -44.113003   0.011029  -1.031271  -5.622237   2.254163 -20.376817  -5.016292   2.429819  31.384449   0.000245   0.000763  26.483558  -3.709483   5.995929 -39.735036  -0.018411  -0.010713  -9.526699   0.833772  -0.001192  52.339282  -0.002431   0.018864  -2.379622  -1.600187  -5.278018  -7.699483   0.000987  -0.015882
 -2.322743   0.941512   3.819578  -4.556700 -31.538857  -3.263822  14.388744  -2.974657  -3.129651   8.186531  -3.100420  -3.559495   3.109470  -1.577891  -0.242337   6.646827  -6.571318  -5.350975  20.000414   0.858371  46.447978  -0.007317  44.467002   0.011821   0.948400   4.215973   4.153900   4.445130   3.235765   0.381732   4.821166   1.080217 -42.986394   0.000273 -44.487991   0.011701  -1.049514  -5.636811   2.354025 -20.853994  -4.905007   2.391815  31.446220   0.000194   0.000506  26.561531  -3.374924   6.395292 -38.868794  -0.018898  -0.009562  -9.133747   0.929132  -0.330440  50.594755  -0.003328   0.021477  -3.061234  -1.429224  -4.999782  -7.191098  -0.000287  -0.014794
 -2.318796   0.939853   3.813619  -4.684823 -31.835977  -3.333250  14.802314  -3.049893  -3.226689   8.215013  -3.235240  -3.540080   3.088680  -1.386417  -0.263741   6.461564  -6.450524  -5.286364  19.743943   0.885420  46.199118  -0.006854  44.928316   0.010526   0.934084   4.162831   4.105602   4.222474   2.833678   0.300441   4.367662   0.765349 -42.680924   0.001035 -44.840060   0.011977  -1.066126  -5.664725   2.447440 -21.297836  -4.802274   2.372981  31.525118   0.000149   0.000282  26.609604  -3.062995   6.762943 -38.499602  -0.016798  -0.007978  -8.808334   1.014664  -0.625955  48.945361  -0.004072   0.022797  -3.699195  -1.272252  -4.738790  -6.726659  -0.001108  -0.013594
 -2.314819   0.937800   3.807674  -4.845579 -32.122939  -3.429708  15.217429  -3.112730  -3.315173   8.261302  -3.352328  -3.523737   3.073122  -1.207516  -0.284183   6.282951  -6.326534  -5.222585  19.498143   0.918185  45.966747  -0.006341  45.361450   0.009280   0.919762   4.124604   4.059157   4.014096   2.455880   0.217428   3.945541   0.467450 -42.402087   0.001669 -45.168769   0.011926  -1.081907  -5.693687   2.530216 -21.708503  -4.707751   2.371935  31.618009   0.000107   0.000088  26.629315  -2.772679   7.101025 -38.584299  -0.013083  -0.006299  -8.539681   1.091973  -0.893455  47.392642  -0.004592   0.023264  -4.295891  -1.128007  -4.494062  -6.302110  -0.001611  -0.012386
 -2.310415   0.934703   3.801342  -5.065370 -32.370294  -3.595009  15.910641  -3.085580  -3.315608   8.136537  -3.513643  -3.473625   2.971186  -1.073975  -0.295750   6.145232  -6.157820  -5.100902  19.088382   1.023087  45.568551  -0.005663  45.625409   0.007598   0.964596   3.938551   4.040490   3.712065   2.042636   0.127687   3.501377   0.018014 -42.031076   0.002003 -45.565478   0.012399  -1.035346  -5.534964   2.549174 -22.812513  -4.542991   2.292204  34.220837   0.002306  -0.001475  23.581127  -2.914221   7.308604 -35.273850  -0.015727  -0.008890  -8.373361   1.062364  -1.074157  45.939494  -0.003956   0.023375  -5.432557  -0.903245  -3.970645  -5.484347  -0.005197  -0.012772
